<svg width="74" height="87" viewBox="0 0 74 87" fill="none" xmlns="http://www.w3.org/2000/svg">
<path d="M0 0H43.47C67.36 0 73.62 2.35 73.62 10.52V31.07C73.62 37.38 69.7 40.23 57.56 41.22C69.7 42.21 73.62 45.06 73.62 51.25V76.13C73.62 84.3 67.35 86.65 43.47 86.65H0V0ZM43.47 11.63C43.47 9.65 42.69 8.91 37.6 8.91H30.16V36.76H37.6C42.69 36.76 43.47 36.02 43.47 34.04V11.63ZM30.15 45.68V77.74H37.59C42.68 77.74 43.46 77 43.46 75.02V48.41C43.46 46.31 42.68 45.69 37.59 45.69H30.15V45.68Z" fill="black"/>
</svg>
