<svg width="72" height="88" viewBox="0 0 72 88" fill="none" xmlns="http://www.w3.org/2000/svg">
<path d="M41.11 59.54C41.11 54.22 39.54 51.74 25.45 45.43C5.48 36.15 0 32.56 0 22.53V10.52C0 2.35 6.27001 0 29.76 0H41.12C65.01 0 71.27 2.35 71.27 10.52V31.07H43.08V11.64C43.08 9.66 42.3 8.92 37.21 8.92H35.64C30.94 8.92 30.16 9.66 30.16 11.64V23.77C30.16 29.22 31.33 31.69 45.43 38.01C65.4 47.17 71.28 50.76 71.28 60.79V77.38C71.28 85.55 65.01 87.9 41.13 87.9H29.77C6.27 87.9 0.0100098 85.55 0.0100098 77.38V52.5H28.2V76.27C28.2 78.25 28.98 78.99 34.07 78.99H35.24C40.33 78.99 41.11 78.25 41.11 76.27V59.56V59.54Z" fill="black"/>
</svg>
